<?xml version="1.0" encoding="utf-8"?>
<!-- Generator: Adobe Illustrator 16.0.0, SVG Export Plug-In . SVG Version: 6.00 Build 0)  -->
<!DOCTYPE svg PUBLIC "-//W3C//DTD SVG 1.1//EN" "http://www.w3.org/Graphics/SVG/1.1/DTD/svg11.dtd" [
	<!ENTITY ns_flows "http://ns.adobe.com/Flows/1.0/">
	<!ENTITY ns_extend "http://ns.adobe.com/Extensibility/1.0/">
	<!ENTITY ns_ai "http://ns.adobe.com/AdobeIllustrator/10.0/">
	<!ENTITY ns_graphs "http://ns.adobe.com/Graphs/1.0/">
]>
<svg version="1.1" id="Layer_1" xmlns:x="&ns_extend;" xmlns:i="&ns_ai;" xmlns:graph="&ns_graphs;"
	 xmlns="http://www.w3.org/2000/svg" xmlns:xlink="http://www.w3.org/1999/xlink" xmlns:a="http://ns.adobe.com/AdobeSVGViewerExtensions/3.0/"
	 x="0px" y="0px" width="512px" height="512px" viewBox="0 0 512 512" enable-background="new 0 0 512 512" xml:space="preserve">
<g>
	<g>
		<g>
			<g>
				<path fill-rule="evenodd" clip-rule="evenodd" fill="#FFFFFF" d="M248.088,467.688c-57.687,0-113.955-24.633-154.377-67.582
					C53.083,356.938,32.68,300.67,36.259,241.665c2.301-37.963,14.747-74.502,35.993-105.667
					c19.855-29.125,46.819-52.99,77.976-69.016c22.231-11.421,48.757-18.809,76.717-21.368c3.902-0.361,16.521-1.3,27.749-1.3
					c3.479,0,6.599,0.091,9.276,0.27c60.055,4.029,115.646,35.096,152.522,85.234c0.961,1.302,2.054,2.739,3.219,4.272
					c10.719,14.106,26.916,35.423,23.116,56.083c-3.096,16.971-25.462,28.547-52.178,40.861c-4.026,1.856-7.504,3.459-9.597,4.575
					c-24.723,13.185-48.05,25.249-70.609,36.915c-24.788,12.82-50.422,26.076-77.805,40.773c-1.52,0.816-3.049,1.686-4.593,2.563
					c-8.668,4.918-19.455,11.041-33.043,11.041c-0.798,0-1.602-0.021-2.415-0.064c-13.265-0.682-25.19-6.744-33.55-17.072
					c-8.611-10.639-12.279-24.682-10.063-38.531c3.608-22.567,22.705-32.376,38.05-40.258c1.644-0.844,3.285-1.687,4.902-2.542
					c18.365-9.688,35.179-18.399,51.438-26.823c18.978-9.832,38.601-19.999,61.11-31.933c0.625-0.33,1.296-0.677,2.014-1.048
					c1.553-0.803,4.665-2.413,7.24-3.98c-2.728-2.202-7.988-5.527-18.135-10.198l-0.383-0.176
					c-14.701-6.788-30.088-10.228-45.742-10.228c-44.755,0-81.777,27.807-97.235,53.643c-16.558,27.659-19.835,68.216-7.97,98.632
					c13.376,34.262,47.19,70.877,101.975,70.877c6.7,0,13.645-0.564,20.645-1.68c53.468-8.523,75.782-49.512,81.349-61.871
					c2.694-5.963,4.704-12.502,6.647-18.824c6.04-19.648,13.557-44.099,45.003-47.897c2.067-0.251,4.17-0.379,6.238-0.379
					c24.451,0,45.815,17.899,49.693,41.636c2.879,17.314-4.756,39.166-10.75,54.094c-20.08,50.014-59.889,92.941-106.487,114.828
					C309.538,460.76,279.091,467.688,248.088,467.688z"/>
				<path fill="#4D4C4D" d="M254.694,57.954c2.965,0,5.824,0.069,8.366,0.239c61.64,4.136,111.62,37.797,142.444,79.706
					c8.814,11.945,26.968,33.167,23.907,49.805c-2.613,14.329-42.825,29.493-54.778,35.869
					c-51.862,27.66-96.09,49.607-148.445,77.705c-9.498,5.104-19.149,11.982-31.186,11.982c-0.557,0-1.119-0.016-1.687-0.045
					c-20.177-1.035-34.107-19.604-30.872-39.828c2.821-17.644,20.384-24.712,35.86-32.896
					c39.605-20.895,70.596-36.514,112.561-58.763c5.929-3.131,18.408-8.973,18.935-14.95c1.004-11.315-20.751-21.149-28.88-24.895
					c-17.335-8.004-34.739-11.478-51.45-11.479c-47.695-0.003-89.796,28.284-108.94,60.28c-17.523,29.27-23.03,74.558-8.972,110.593
					c15.82,40.523,55.435,79.561,114.683,79.561c7.303,0,14.896-0.592,22.789-1.848c48.675-7.762,78.573-40.721,91.643-69.744
					c11.618-25.707,10.169-55.073,40.849-58.778c1.56-0.189,3.095-0.281,4.603-0.281c19.077,0,33.69,14.644,36.231,30.196
					c2.343,14.088-4.846,34.107-9.946,46.809c-18.87,47.002-56.196,87.166-99.628,107.564
					c-28.155,13.242-56.873,19.291-84.691,19.291c-109.629,0-205.351-93.912-198.213-211.556
					c4.542-74.94,49.655-134.093,106.592-163.379c19.731-10.137,44.729-17.444,71.721-19.915
					C231.701,58.873,243.904,57.954,254.694,57.954 M254.699,30.672v27.282l-0.001-27.282c-14.155,0-28.874,1.346-29.021,1.359
					C196.018,34.747,167.766,42.636,144,54.845c-33.184,17.069-61.888,42.472-83.019,73.469
					c-22.631,33.197-35.888,72.107-38.338,112.526c-1.941,31.992,2.71,63.232,13.825,92.845
					c10.563,28.145,26.479,53.637,47.309,75.768c42.989,45.678,102.878,71.875,164.311,71.875c33.025,0,65.426-7.363,96.302-21.885
					c49.629-23.311,92.002-68.951,113.335-122.088c7.156-17.82,14.934-40.898,11.552-61.383
					c-2.299-14.051-9.683-27.184-20.793-36.982c-5.981-5.274-12.812-9.344-20.125-12.07c10.93-6.844,24.851-17.65,27.892-34.321
					c4.882-26.543-13.508-50.746-25.678-66.762c-1.143-1.503-2.222-2.924-3.116-4.136c-39.237-53.348-98.501-86.429-162.57-90.728
					C261.902,30.773,258.477,30.672,254.699,30.672L254.699,30.672z M152.446,237.351c1.995-11.907,5.862-23.251,11.49-32.653
					c13.55-22.647,46.093-47.015,85.531-47.012c12.026,0,23.893,2.335,35.346,6.948c-17.08,8.987-32.607,17.032-47.724,24.863
					c-16.282,8.436-33.118,17.158-51.515,26.864c-1.545,0.817-3.117,1.625-4.782,2.479
					C172.273,223.217,161.458,228.771,152.446,237.351L152.446,237.351z M197.756,340.477c15.838-0.73,28.006-7.637,37.022-12.754
					c1.534-0.871,2.983-1.693,4.321-2.412c27.281-14.643,52.867-27.873,77.61-40.67c9.407-4.865,18.95-9.801,28.672-14.857
					c-1.281,3.686-2.416,7.377-3.539,11.029c-1.903,6.191-3.701,12.039-6.032,17.199c-4.872,10.818-24.35,46.586-71.078,54.037
					c-6.283,1-12.509,1.508-18.493,1.508C227.196,353.557,211.045,348.482,197.756,340.477L197.756,340.477z"/>
			</g>
			<g>
				<path fill-rule="evenodd" clip-rule="evenodd" fill="#6ECEEC" d="M429.157,462.092c-6.948,0-13.942-1.311-20.79-3.893
					c-21.58-8.117-34.464-30.52-32.052-55.746c2.367-24.758,19.123-43.354,42.688-47.375c3.9-0.664,7.768-1.002,11.498-1.002
					c25.78,0,46.068,16.029,51.688,40.836c3.748,16.539-0.119,33.557-10.608,46.689C461.18,454.623,445.717,462.092,429.157,462.092
					z"/>
				<path fill="#4D4C4D" d="M430.501,363.17c23.395,0,38.622,15.225,42.818,33.75c6.606,29.156-15.398,56.078-44.162,56.078
					c-5.655,0-11.567-1.041-17.58-3.309c-37.63-14.15-35.493-78.063,8.956-85.648C424,363.451,427.327,363.17,430.501,363.17
					 M430.504,344.982v18.188V344.982c-4.245,0-8.626,0.381-13.023,1.129c-27.739,4.734-47.448,26.51-50.218,55.477
					c-1.257,13.143,1.316,26.576,7.246,37.824c6.782,12.867,17.386,22.307,30.666,27.301c7.86,2.965,15.935,4.473,23.982,4.473
					c19.34,0,37.393-8.715,49.528-23.908c12.225-15.305,16.734-35.125,12.372-54.377c-3.006-13.268-10.187-25.236-20.219-33.701
					C459.818,349.898,445.87,344.982,430.504,344.982L430.504,344.982z"/>
			</g>
		</g>
	</g>
</g>
<g>
</g>
<g>
</g>
<g>
</g>
<g>
</g>
<g>
</g>
<g>
</g>
</svg>
